<?xml version="1.0" encoding="utf-8"?>
<!-- Generator: Adobe Illustrator 21.1.0, SVG Export Plug-In . SVG Version: 6.00 Build 0)  -->
<svg version="1.1" xmlns="http://www.w3.org/2000/svg" xmlns:xlink="http://www.w3.org/1999/xlink" x="0px" y="0px"
	 viewBox="0 0 363.6 94.5" style="enable-background:new 0 0 363.6 94.5;" xml:space="preserve">
<style type="text/css">
	.st0{fill:#FFFFFF;}
</style>
<g id="Layer_1">
</g>
<g id="Isolation_Mode">
	<g>
		<path class="st0" d="M0,42.1h25.8v6.7h-18v7.9h17.7v6.7H7.8v15.2H0V42.1z"/>
		<path class="st0" d="M29.4,65.4c0-7.5,5.3-13.8,13.9-13.8c8.8,0,14,6.3,14,13.8c0,7.5-5.3,13.9-14,13.9
			C34.6,79.2,29.4,72.9,29.4,65.4z M50.1,65.4c0-4.1-2.5-7.7-6.8-7.7s-6.7,3.6-6.7,7.7c0,4.2,2.4,7.7,6.7,7.7S50.1,69.5,50.1,65.4z"
			/>
		<path class="st0" d="M62.4,52.2h6.9v3.6c1.9-2.4,5.1-4.2,8.4-4.2v6.8c-0.5-0.1-1.1-0.2-1.9-0.2c-2.3,0-5.4,1.3-6.5,3v17.4h-6.9
			V52.2z"/>
		<path class="st0" d="M88.9,49H78.2v-6.8h29.1V49H96.7v29.6h-7.8V49z"/>
		<path class="st0" d="M130,62.5c0-3.7-1.9-4.8-4.9-4.8c-2.7,0-4.8,1.5-6,3.1v17.8h-6.9V42.1h6.9v13.5c1.7-2,5-4.1,9.3-4.1
			c5.8,0,8.6,3.2,8.6,8.3v18.8H130V62.5z"/>
		<path class="st0" d="M155.8,51.5c7.9,0,13.2,5.9,13.2,14.5v1.5h-19.6c0.4,3.3,3.1,6.1,7.6,6.1c2.5,0,5.4-1,7.1-2.6l3.1,4.5
			c-2.7,2.5-6.8,3.7-10.9,3.7c-8,0-14.1-5.4-14.1-13.9C142.1,57.7,147.7,51.5,155.8,51.5z M149.3,62.9h13c-0.2-2.5-1.9-5.9-6.5-5.9
			C151.5,57,149.6,60.3,149.3,62.9z"/>
		<path class="st0" d="M174.2,42.1H200v6.7h-18v7.9h17.7v6.7H182v15.2h-7.8V42.1z"/>
		<path class="st0" d="M204.6,44.1c0-2.3,1.9-4.2,4.2-4.2c2.3,0,4.2,1.9,4.2,4.2s-1.9,4.2-4.2,4.2C206.5,48.3,204.6,46.4,204.6,44.1
			z M205.3,52.2h6.9v26.4h-6.9V52.2z"/>
		<path class="st0" d="M219.1,52.2h6.9v3.6c1.9-2.4,5.1-4.2,8.4-4.2v6.8c-0.5-0.1-1.1-0.2-1.9-0.2c-2.3,0-5.4,1.3-6.5,3v17.4h-6.9
			V52.2z"/>
		<path class="st0" d="M239.5,70.3c1.9,1.8,5.9,3.6,9.1,3.6c3,0,4.4-1,4.4-2.7c0-1.9-2.3-2.5-5.3-3.1c-4.5-0.9-10.4-2-10.4-8.3
			c0-4.4,3.9-8.3,10.8-8.3c4.5,0,8,1.5,10.6,3.6l-2.7,4.8c-1.6-1.7-4.6-3.1-7.8-3.1c-2.5,0-4.2,0.9-4.2,2.5c0,1.6,2.1,2.2,5,2.8
			c4.5,0.9,10.6,2.1,10.6,8.6c0,4.9-4.1,8.5-11.4,8.5c-4.6,0-9-1.5-11.8-4.1L239.5,70.3z"/>
		<path class="st0" d="M266.2,72V58.2h-4.4v-6.1h4.4V45h7v7.2h5.4v6.1h-5.4v11.9c0,1.6,0.9,2.9,2.4,2.9c1,0,2-0.4,2.4-0.8l1.5,5.3
			c-1,0.9-2.9,1.7-5.8,1.7C268.9,79.2,266.2,76.7,266.2,72z"/>
		<path class="st0" d="M296.2,43.1c-5.7,0-11-0.4-14.5-1v2.5c8.7,9.6,10.4,17.7,10.6,30.7c0,0.4,0,0.7,0,1.1
			c0.7,0.6,1.3,1.4,1.6,2.2h0.2c0.1-2,1-4.1,1.9-5c0,0.5,0,1,0.1,1.4c0.2,1.3,0.8,2.5,1.6,3.6h1.2c0.2-1.6,0.6-2.8,1.2-3.5
			c0-0.5,0-1,0-1.5c0.4-12,2.3-19.8,10.6-28.9v-2.5C307.3,42.7,301.9,43.1,296.2,43.1z"/>
		<path class="st0" d="M320.1,51.5c7.9,0,13.2,5.9,13.2,14.5v1.5h-19.6c0.4,3.3,3.1,6.1,7.6,6.1c2.5,0,5.4-1,7.1-2.6l3.1,4.5
			c-2.7,2.5-6.8,3.7-10.9,3.7c-8,0-14.1-5.4-14.1-13.9C306.4,57.7,312.1,51.5,320.1,51.5z M313.6,62.9h13c-0.2-2.5-1.9-5.9-6.5-5.9
			C315.8,57,313.9,60.3,313.6,62.9z"/>
		<path class="st0" d="M350.3,51.5c7.9,0,13.2,5.9,13.2,14.5v1.5h-19.6c0.4,3.3,3.1,6.1,7.6,6.1c2.5,0,5.4-1,7.1-2.6l3.1,4.5
			c-2.7,2.5-6.8,3.7-10.9,3.7c-8,0-14.1-5.4-14.1-13.9C336.7,57.7,342.3,51.5,350.3,51.5z M343.8,62.9h13c-0.2-2.5-1.9-5.9-6.5-5.9
			C346,57,344.2,60.3,343.8,62.9z"/>
		<path class="st0" d="M303.7,81.5c-0.8-1.1-0.8-2.8-0.6-3.7c-0.9,0.4-1.9,1.8-1.9,1.8c-1-1.6-1.3-2.9-1-4.9
			c-0.1,0.1-0.2,0.2-0.2,0.3c-0.5,0.7-1,2-1.2,3.5c0,0.5-0.1,1-0.1,1.5c-0.4-0.5-0.8-1-1.1-1.5c-0.8-1.2-1.3-2.3-1.6-3.6
			c-0.1-0.5-0.1-0.9-0.1-1.4c-1,0.9-1.8,3.1-1.9,5c0,0.2,0,0.3,0,0.5c-0.1-0.2-0.1-0.3-0.2-0.5c-0.4-0.8-0.9-1.5-1.6-2.2
			c-0.7-0.6-1.5-1.1-2.3-1.3c2,2.4,1.6,4.2,0.9,5.4c-0.2-1.1-0.7-1.6-1.4-1.8c0.1,0.9-0.3,1.9-1.1,2.8c0.6-1.6,0.5-3.4-0.4-4.5
			c0,0,2.2,0.7,2.5,1.2c0.2-1.6-3.4-4.9-3.4-4.9c2.4,0.5,3.8,1,5.2,2c0.4,0.3,0.9,0.7,1.3,1.2c0.3-1.6,1.3-3.3,2.6-4.4
			c0.4-0.4,0.8-0.7,1.3-0.9c-1.1,2.2-0.2,5.1,0.7,6.1c0.3-1.5,1-2.8,2-3.8c0.5-0.6,1.2-1.1,1.9-1.5c-1.3,2.8-1,5.1-0.6,6.1
			c0.8-0.9,2.4-1.8,3.3-1.8C303.9,77.7,303.4,79.6,303.7,81.5z"/>
		<path class="st0" d="M296.2-0.1c-8.8,0-16.8,4.9-20.9,12.7c-1.8,3.4-2.7,7-2.7,10.9c0,13,10.6,23.6,23.6,23.6
			c5.7,0,11.1-2,15.4-5.7c5.2-4.5,8.2-11,8.2-17.9C319.8,10.5,309.2-0.1,296.2-0.1z M308.8,38.2c-0.6,0.5-1.1,0.9-1.7,1.3
			c0,0,0,0,0,0c-1.2,0.2-2.4-0.3-3.5-0.3c-1.2,0.1-2.2,0.8-3.4,0.7c-1.2-0.1-2.1-1-3.2-1.2c-1.1-0.3-2.3,0.1-3.4-0.3
			c-1.1-0.4-1.8-1.5-2.8-2c-1-0.5-2.2-0.4-3.2-1.1c-1-0.7-1.3-1.9-2.1-2.6c-0.8-0.8-2.1-1-2.8-1.9c-0.8-0.9-0.8-2.1-1.4-3.1
			c-0.6-1-1.7-1.5-2.2-2.6c-0.5-1.1-0.2-2.3-0.5-3.5c-0.2-0.7-0.7-1.4-1.1-2.1c0.3-1.3,0.7-2.6,1.3-3.9c0.3,0.3,0.7,0.5,1.1,0.5
			c0.9-0.1,1.6-1.1,1.7-2.3c0-0.7-0.2-1.4-0.5-1.9c3.6-4.8,9.3-7.7,15.5-7.7c10.7,0,19.3,8.7,19.3,19.3c0,3.8-1.1,7.4-3.1,10.5
			c-0.5-0.7-1.7-0.8-2.8-0.4c-1.1,0.5-1.9,1.4-1.6,2.3c0.2,0.7,1,1.1,2,1C309.6,37.4,309.2,37.8,308.8,38.2z M282.2,20.8
			c-0.4-1.1-1.3-1.8-2.2-1.7c-0.9,0.2-1.4,1.4-1,2.7c0.4,1.3,1.6,2,2.4,1.6C282.3,23,282.6,21.9,282.2,20.8z M285.3,26.8
			c-0.7-0.9-1.8-1.3-2.6-0.8c-0.8,0.5-0.9,1.8-0.1,2.8c0.8,1.1,2.1,1.3,2.8,0.7C286.1,28.8,286,27.7,285.3,26.8z M290.1,31.4
			c-0.9-0.6-2.1-0.6-2.7,0.1c-0.6,0.7-0.3,2,0.8,2.7c1.1,0.8,2.4,0.6,2.8-0.2C291.4,33.1,291,32,290.1,31.4z M296.1,34.3
			c-1.1-0.3-2.2,0-2.5,0.9c-0.4,0.9,0.3,2,1.6,2.4c1.3,0.4,2.5-0.2,2.6-1.1C297.9,35.5,297.1,34.6,296.1,34.3z M305,36.6
			c-0.1-0.9-1.2-1.5-2.3-1.5c-1.1,0-2.1,0.7-2.2,1.7c-0.1,0.9,0.9,1.8,2.3,1.7C304.2,38.5,305.2,37.6,305,36.6z"/>
	</g>
	<g>
		<path class="st0" d="M16.4,87.8h-2.3v-1.5h6.4v1.5h-2.3v6.5h-1.7V87.8z"/>
		<path class="st0" d="M32.1,91h-3.8v3.4h-1.7v-8h1.7v3.1h3.8v-3.1h1.7v8h-1.7V91z"/>
		<path class="st0" d="M40.4,86.3h5.7v1.5h-4v1.7H46V91h-3.9v1.9h4v1.5h-5.7V86.3z"/>
		<path class="st0" d="M60.6,86.3h5.7v1.5h-4v1.7h3.9V91h-3.9v1.9h4v1.5h-5.7V86.3z"/>
		<path class="st0" d="M73,91.9c0.6,0.6,1.4,1.1,2.5,1.1c0.9,0,1.4-0.4,1.4-0.9c0-0.6-0.7-0.8-1.6-1c-1.3-0.3-3-0.7-3-2.4
			c0-1.3,1.2-2.4,3-2.4c1.3,0,2.3,0.4,3.1,1.1l-0.9,1.2c-0.6-0.6-1.5-0.9-2.3-0.9c-0.8,0-1.2,0.3-1.2,0.8c0,0.5,0.7,0.7,1.6,0.9
			c1.3,0.3,3,0.7,3,2.5c0,1.5-1,2.6-3.2,2.6c-1.5,0-2.6-0.5-3.4-1.3L73,91.9z"/>
		<path class="st0" d="M85.2,91.9c0.6,0.6,1.4,1.1,2.5,1.1c0.9,0,1.4-0.4,1.4-0.9c0-0.6-0.7-0.8-1.6-1c-1.3-0.3-3-0.7-3-2.4
			c0-1.3,1.2-2.4,3-2.4c1.3,0,2.3,0.4,3.1,1.1l-0.9,1.2c-0.6-0.6-1.5-0.9-2.3-0.9c-0.8,0-1.2,0.3-1.2,0.8c0,0.5,0.7,0.7,1.6,0.9
			c1.3,0.3,3,0.7,3,2.5c0,1.5-1,2.6-3.2,2.6c-1.5,0-2.6-0.5-3.4-1.3L85.2,91.9z"/>
		<path class="st0" d="M97.1,86.3h5.7v1.5h-4v1.7h3.9V91h-3.9v1.9h4v1.5h-5.7V86.3z"/>
		<path class="st0" d="M110.8,89v5.4h-1.7v-8h1.8l3.7,5.2v-5.2h1.7v8h-1.6L110.8,89z"/>
		<path class="st0" d="M124.7,87.8h-2.3v-1.5h6.4v1.5h-2.3v6.5h-1.7V87.8z"/>
		<path class="st0" d="M134.9,86.3h1.7v8h-1.7V86.3z"/>
		<path class="st0" d="M148.3,93h-3.6l-0.5,1.4h-1.9l3.1-8h2.1l3.1,8h-1.9L148.3,93z M145.2,91.5h2.7l-1.3-3.7L145.2,91.5z"/>
		<path class="st0" d="M156.5,86.3h1.7v6.5h3.4v1.5h-5.1V86.3z"/>
		<path class="st0" d="M176.3,91.9c0.6,0.6,1.4,1.1,2.5,1.1c0.9,0,1.4-0.4,1.4-0.9c0-0.6-0.7-0.8-1.6-1c-1.3-0.3-3-0.7-3-2.4
			c0-1.3,1.2-2.4,3-2.4c1.3,0,2.3,0.4,3.1,1.1l-0.9,1.2c-0.6-0.6-1.5-0.9-2.3-0.9c-0.8,0-1.2,0.3-1.2,0.8c0,0.5,0.7,0.7,1.6,0.9
			c1.3,0.3,3,0.7,3,2.5c0,1.5-1,2.6-3.2,2.6c-1.5,0-2.6-0.5-3.4-1.3L176.3,91.9z"/>
		<path class="st0" d="M192.9,88.8l-1.4,5.5h-1.8l-2.3-8h1.9l1.4,5.8l1.5-5.8h1.3l1.5,5.8l1.4-5.8h1.9l-2.3,8h-1.8L192.9,88.8z"/>
		<path class="st0" d="M204.2,86.3h1.7v8h-1.7V86.3z"/>
		<path class="st0" d="M214.2,89v5.4h-1.7v-8h1.8l3.7,5.2v-5.2h1.7v8h-1.6L214.2,89z"/>
		<path class="st0" d="M230.2,86.2c1.7,0,2.7,0.8,3.3,1.8l-1.4,0.8c-0.4-0.6-1.1-1-1.9-1c-1.5,0-2.5,1.1-2.5,2.6
			c0,1.5,1.1,2.6,2.5,2.6c0.7,0,1.4-0.3,1.7-0.6v-1h-2.1v-1.5h3.8V93c-0.8,0.9-2,1.5-3.4,1.5c-2.3,0-4.3-1.6-4.3-4.2
			C225.9,87.8,227.9,86.2,230.2,86.2z"/>
		<path class="st0" d="M250,87.8h-2.3v-1.5h6.4v1.5h-2.3v6.5H250V87.8z"/>
		<path class="st0" d="M260.1,86.3h1.7v8h-1.7V86.3z"/>
		<path class="st0" d="M268.5,86.3h3.7c1.7,0,2.7,1.2,2.7,2.6c0,1.4-1,2.6-2.7,2.6h-2v2.9h-1.7V86.3z M272,87.8h-1.8V90h1.8
			c0.7,0,1.2-0.4,1.2-1.1C273.2,88.2,272.7,87.8,272,87.8z"/>
		<path class="st0" d="M293,86.2c1.7,0,2.7,0.8,3.3,1.8l-1.4,0.8c-0.4-0.6-1.1-1-1.9-1c-1.5,0-2.5,1.1-2.5,2.6
			c0,1.5,1.1,2.6,2.5,2.6c0.7,0,1.4-0.3,1.7-0.6v-1h-2.1v-1.5h3.8V93c-0.8,0.9-2,1.5-3.4,1.5c-2.3,0-4.3-1.6-4.3-4.2
			C288.7,87.8,290.6,86.2,293,86.2z"/>
		<path class="st0" d="M302.8,86.3h1.7v4.8c0,1.1,0.6,1.9,1.9,1.9c1.2,0,1.8-0.8,1.8-1.9v-4.8h1.7v4.8c0,2-1.1,3.3-3.6,3.3
			c-2.4,0-3.6-1.4-3.6-3.3V86.3z"/>
		<path class="st0" d="M316.6,86.3h1.7v8h-1.7V86.3z"/>
		<path class="st0" d="M324.9,86.3h3.2c2.5,0,4.2,1.6,4.2,4c0,2.4-1.7,4-4.2,4h-3.2V86.3z M328.1,92.8c1.6,0,2.5-1.1,2.5-2.5
			c0-1.4-0.9-2.5-2.5-2.5h-1.5v5H328.1z"/>
		<path class="st0" d="M338.6,86.3h5.7v1.5h-4v1.7h3.9V91h-3.9v1.9h4v1.5h-5.7V86.3z"/>
	</g>
</g>
</svg>
